G04 DipTrace 3.3.1.0*
G04 Bottom.gbr*
%MOMM*%
G04 #@! TF.FileFunction,Copper,L4,Bot*
G04 #@! TF.Part,Single*
G04 #@! TA.AperFunction,Conductor*
%ADD11C,0.14*%
%ADD12C,0.0762*%
%ADD13C,0.153*%
%ADD14C,0.3*%
G04 #@! TA.AperFunction,CopperBalancing*
%ADD16C,0.1*%
%ADD56R,0.9X0.4*%
%ADD58R,0.4X0.9*%
%ADD60C,1.4*%
%ADD62C,1.4*%
%ADD64C,0.5*%
G04 #@! TA.AperFunction,ViaPad*
%ADD66C,0.306*%
%FSLAX35Y35*%
G04*
G71*
G90*
G75*
G01*
G04 Bottom*
%LPD*%
X711757Y263457D2*
D12*
X726963Y278663D1*
Y377170D1*
G02X730187Y408393I136515J1685D01*
G01*
X748637Y462343D1*
G03X755897Y492597I-107171J41716D01*
G01*
Y622937D1*
X802553Y669593D1*
X898680D1*
X929087Y700000D1*
X1180000D1*
X45000Y575000D2*
D14*
Y505000D1*
X611000Y844000D2*
D12*
X625000Y830000D1*
X335140Y850250D2*
X402900D1*
X403003Y850353D1*
X390353D1*
X370000Y830000D1*
X350000Y595000D2*
X355000D1*
X370000Y580000D1*
X45000Y540000D2*
X70000D1*
X1160000Y140000D2*
X1180000D1*
X1160000Y300000D2*
X1180000D1*
X1200000Y620000D2*
X1180000D1*
X505000Y1110000D2*
Y1090000D1*
X585000Y1110000D2*
Y1090000D1*
X630170Y362523D2*
Y335170D1*
X625000Y330000D1*
X671550Y324427D2*
X630573D1*
X625000Y330000D1*
X881137Y350073D2*
Y331137D1*
X880000Y330000D1*
X870953Y599147D2*
Y589047D1*
X880000Y580000D1*
X870000Y830000D2*
X880000D1*
X632153Y577193D2*
X627807D1*
X625000Y580000D1*
X375243Y319800D2*
Y324757D1*
X370000Y330000D1*
X43017Y859883D2*
X75017D1*
X70117D1*
X70000Y860000D1*
X276087Y418913D2*
Y433990D1*
X255483Y478430D1*
G02X235210Y546547I223358J103553D01*
G01*
Y879363D1*
X160000Y1020853D2*
X129730Y990583D1*
Y519087D1*
X167953Y480863D1*
Y370000D1*
X160000Y1020853D2*
D13*
X174703Y1035557D1*
Y1090000D1*
X185000D1*
X1180000Y221267D2*
D11*
Y220000D1*
X272430Y1029283D2*
D13*
X265000Y1056000D1*
D12*
Y1090000D1*
X509473Y291960D2*
Y263180D1*
X527930Y244723D1*
X618823D1*
G03X709563Y334437I-1008J91766D01*
G01*
Y385700D1*
G02X718063Y425570I139869J-8978D01*
G01*
X732780Y467420D1*
G03X739610Y502010I-80887J33941D01*
G01*
Y628843D1*
X795890Y685123D1*
X892483D1*
X915293Y707933D1*
Y750067D1*
X927730Y762503D1*
G03X951277Y871713I-48258J67548D01*
G01*
X944610Y899110D1*
X984263Y89297D2*
Y90380D1*
X979230Y100000D1*
X988000D1*
Y73000D1*
X985000Y70000D1*
X868120Y124183D2*
Y130530D1*
X898650Y100000D1*
X897813D1*
X905000Y70000D1*
X804967Y138330D2*
X817977Y125320D1*
Y96813D1*
X835557Y70000D1*
X825000D1*
X768527Y155850D2*
X760000Y140143D1*
Y108000D1*
X752000Y63000D1*
X745000Y70000D1*
X689643Y154980D2*
X679990Y139140D1*
Y70000D1*
X665000D1*
X728773Y155853D2*
X701850Y182777D1*
X674777D1*
X585000Y93000D1*
Y70000D1*
X424000Y1064000D2*
X425000Y1065000D1*
Y1090000D1*
X330620Y414283D2*
X340000Y440000D1*
G03X324557Y500003I-40857J21474D01*
G01*
G02X288000Y579597I65189J78133D01*
G01*
Y830743D1*
G02X311683Y891683I78990J4374D01*
G01*
X394937Y974937D1*
X444087D1*
Y1061433D2*
D13*
X436000D1*
D12*
X425000Y1090000D1*
X284000Y992000D2*
X304000D1*
X345000Y1033000D1*
Y1090000D1*
X94917Y1020823D2*
D13*
X70000D1*
Y1020000D1*
X92337Y940177D2*
Y944000D1*
D12*
X74000Y936000D1*
X70000Y940000D1*
X199983Y296187D2*
X152000Y300000D1*
X70000D1*
X367640Y427360D2*
X394563D1*
G03X448370Y456533I-6768J76689D01*
G01*
G03X509037Y606397I-211090J172663D01*
G01*
Y864830D1*
G02X604887Y955727I95844J-5082D01*
G01*
X660050D1*
X708000Y1064000D2*
D13*
X739573D1*
D12*
X745000Y1090000D1*
X140907Y469397D2*
D13*
X70000D1*
D12*
Y460000D1*
X197837Y342837D2*
X174050Y342007D1*
X133243D1*
X103250Y372000D1*
X78000D1*
X70000Y380000D1*
X1065000Y70000D2*
Y100000D1*
X1028000D1*
X140993Y208007D2*
X134993Y204000D1*
X104000D1*
X70000Y212000D1*
Y220000D1*
X368000Y136000D2*
X356000Y124000D1*
Y107997D1*
X345990Y97987D1*
X348000Y92000D1*
X345000Y65000D1*
Y70000D1*
X426497Y135290D2*
Y96000D1*
X420000Y75000D1*
X425000Y70000D1*
X503887Y146703D2*
X505000Y70000D1*
X474857Y270850D2*
X470877Y296640D1*
X468550Y312547D1*
Y346203D1*
G02X489237Y448373I249795J2602D01*
G01*
X495507Y461207D1*
G03X539773Y589283I-323816J183607D01*
G01*
X539783Y833600D1*
G02X623417Y911930I81821J-3548D01*
G01*
X676280D1*
X721120Y956770D1*
X991500D1*
X1026540Y887000D2*
X1133540Y780000D1*
X1180000D1*
X275690Y320690D2*
X300867Y285500D1*
G03X453107Y330320I69261J45708D01*
G01*
Y365210D1*
G02X469537Y445987I216969J-2072D01*
G01*
X478687Y464887D1*
G03X524513Y595470I-288641J174628D01*
G01*
Y834870D1*
G02X622120Y927873I96496J-3552D01*
G01*
X670357D1*
X714717Y972233D1*
X967240D1*
X979427Y984420D1*
X1003527D1*
X1030723Y957223D1*
X1067580Y886673D2*
X1094253Y860000D1*
X1180000D1*
X533633Y361273D2*
X553593Y381233D1*
G02X626680Y412963I71050J-63618D01*
G01*
X675593D1*
G03X701913Y429690I-4125J35561D01*
G01*
X719050Y481907D1*
G03X724140Y514013I-108236J33616D01*
G01*
Y833597D1*
X816573Y926030D1*
X961357D1*
X973323Y914063D1*
X1093317D1*
X1115253Y936000D1*
X1152000D1*
X1156000Y940000D1*
X1180000D1*
X496377Y348623D2*
X501387Y365587D1*
G02X516450Y387197I53117J-20971D01*
G01*
G02X622133Y428473I101701J-104460D01*
G01*
X672777D1*
G03X687123Y438893I-1349J16944D01*
G01*
X701580Y484247D1*
G03X707757Y521917I-140993J42460D01*
G01*
Y839257D1*
X809963Y941463D1*
X967593D1*
X979650Y929407D1*
X1086547D1*
X1141763Y984623D1*
Y1020000D1*
X1180000D1*
X414940Y463483D2*
X436857Y480040D1*
G03X493793Y610237I-160381J147685D01*
G01*
Y867153D1*
G02X595403Y971213I104666J-563D01*
G01*
X636873D1*
X653227Y987567D1*
X878093D1*
X1026267Y1026267D1*
X1065000Y1065000D1*
Y1090000D1*
X374380Y470620D2*
X381717D1*
G02X406907Y490993I38860J-22287D01*
G01*
G03X478113Y615707I-101742J140776D01*
G01*
Y866093D1*
G02X595147Y986533I117447J2957D01*
G01*
X628680D1*
X645127Y1002980D1*
X851260D1*
X947450Y1028557D1*
X969957Y1051063D1*
X985000D1*
Y1090000D1*
X316717Y464673D2*
X302630Y495783D1*
G02X272000Y574387I79866J76392D01*
G01*
X272090Y845203D1*
G02X300487Y902490I94145J-10986D01*
G01*
X383257Y985083D1*
G02X424890Y1002053I42096J-43721D01*
G01*
X622627D1*
X638790Y1018217D1*
X844490D1*
X868530Y1028697D1*
X894690Y1054853D1*
X905000Y1090000D1*
X825000D2*
Y1052000D1*
X812380D1*
X793953Y1033573D1*
X632200D1*
X616203Y1017577D1*
X422383D1*
G03X370970Y994840I1989J-73994D01*
G01*
X286650Y910520D1*
G03X256610Y845613I59925J-67139D01*
G01*
Y542410D1*
G03X294413Y446497I429551J113897D01*
G01*
X295027Y445353D1*
G02X300017Y396280I-44530J-29318D01*
G01*
G02X243603Y343150I-87952J36873D01*
G01*
X439113Y644403D2*
D13*
X455417Y660707D1*
Y885383D1*
X464133Y921653D1*
X466827Y934597D1*
X309133Y161363D2*
D12*
X277400Y129630D1*
Y108433D1*
X264000Y70000D1*
X265000D1*
X459340Y235660D2*
X480733Y229243D1*
X715870D1*
X742477Y255850D1*
Y347243D1*
X825853Y430620D1*
X925000D1*
X1045387D1*
X1142753Y527987D1*
X1147527D1*
X1180000Y550000D1*
Y540000D1*
X462007Y197333D2*
X468737Y200000D1*
X482610Y213873D1*
X722167D1*
X757813Y249520D1*
Y340147D1*
X832683Y415017D1*
X861397D1*
G02X956000Y388000I-7418J-205119D01*
G01*
X1060930D1*
X1132103Y459173D1*
X1180000D1*
Y460000D1*
X505300Y186047D2*
X554610Y198363D1*
X728690D1*
X778327Y248000D1*
X932000D1*
X992000D1*
X1124000Y380000D1*
X1180000D1*
X284000Y952000D2*
X319340Y965090D1*
X361710Y1007460D1*
G02X421707Y1033340I59394J-55206D01*
G01*
X610117D1*
X626520Y1049743D1*
X659293D1*
X665000Y1090000D1*
X92607Y701477D2*
D14*
X92507Y736000D1*
X92607Y701477D2*
D12*
X71477D1*
X70000Y700000D1*
X226927Y162927D2*
X185000Y121000D1*
Y70000D1*
X44927Y619730D2*
X69730D1*
X70000Y620000D1*
D66*
X711757Y263457D3*
X611000Y844000D3*
X276087Y418913D3*
X235210Y879363D3*
X160000Y1020853D3*
X167953Y370000D3*
X160000Y1020853D3*
X1180000Y221267D3*
X272430Y1029283D3*
X509473Y291960D3*
X944610Y899110D3*
X984263Y89297D3*
X868120Y124183D3*
X804967Y138330D3*
X768527Y155850D3*
X689643Y154980D3*
X728773Y155853D3*
X330620Y414283D3*
X444087Y974937D3*
Y1061433D3*
X284000Y992000D3*
X94917Y1020823D3*
X92337Y940177D3*
X199983Y296187D3*
X367640Y427360D3*
X660050Y955727D3*
X708000Y1064000D3*
X140907Y469397D3*
X197837Y342837D3*
X1028000Y100000D3*
X140993Y208007D3*
X368000Y136000D3*
X426497Y135290D3*
X503887Y146703D3*
X474857Y270850D3*
X991500Y956770D3*
X1026540Y887000D3*
X275690Y320690D3*
X1030723Y957223D3*
X1067580Y886673D3*
X533633Y361273D3*
X496377Y348623D3*
X414940Y463483D3*
X374380Y470620D3*
X316717Y464673D3*
X243603Y343150D3*
X439113Y644403D3*
X466827Y934597D3*
X309133Y161363D3*
X459340Y235660D3*
X925000Y430620D3*
X462007Y197333D3*
X956000Y388000D3*
X505300Y186047D3*
X932000Y248000D3*
X284000Y952000D3*
X226927Y162927D3*
X43017Y859883D3*
X75017D3*
X92507Y736000D3*
X92607Y701477D3*
X90000Y815000D3*
X100000Y785000D3*
X44927Y619730D3*
X140000Y140000D3*
X165000Y165000D3*
X45000Y540000D3*
X350000Y595000D3*
X249640Y248610D3*
X375243Y319800D3*
X45000Y575000D3*
Y505000D3*
X900000Y870000D3*
X870000Y830000D3*
X890000Y290000D3*
X820467Y292110D3*
X809183Y828687D3*
X927847Y600390D3*
X870953Y599147D3*
X881137Y350073D3*
X653350Y608123D3*
X671550Y324427D3*
X630170Y362523D3*
X632153Y577193D3*
X661680Y829730D3*
X585000Y1110000D3*
X505000D3*
X403003Y850353D3*
X1200000Y620000D3*
X335140Y850250D3*
X1200000Y300000D3*
X1160000D3*
Y140000D3*
X1200000D3*
Y50000D3*
X214740Y165333D2*
D16*
X244770D1*
X205073Y155667D2*
X244830D1*
X195403Y146000D2*
X242680D1*
X185757Y136333D2*
X237057D1*
X176087Y126667D2*
X230983D1*
X171010Y117000D2*
X200923D1*
X171010Y107333D2*
X197993D1*
X171010Y97667D2*
X197993D1*
X171010Y88000D2*
X197993D1*
X171010Y78333D2*
X197993D1*
X231980Y125907D2*
Y128020D1*
X233210D1*
X245857Y149723D1*
X245667Y174907D1*
X223383Y174960D1*
X170007Y121593D1*
X170000Y74747D1*
X198980Y73263D1*
X199060Y112783D1*
X199543Y114270D1*
X200467Y115537D1*
X205060Y120047D1*
X206453Y120757D1*
X208000Y121000D1*
X229140D1*
X231977Y125893D1*
X218413Y255333D2*
X268990D1*
X208743Y245667D2*
X267603D1*
X199077Y236000D2*
X257937D1*
X189407Y226333D2*
X248267D1*
X179740Y216667D2*
X238600D1*
X170287Y207000D2*
X228930D1*
X168217Y197333D2*
X219263D1*
X161693Y187667D2*
X209597D1*
X141070Y178000D2*
X199927D1*
X131400Y168333D2*
X190260D1*
X121733Y158667D2*
X180593D1*
X101010Y149000D2*
X170923D1*
X101010Y139333D2*
X161257D1*
X101010Y129667D2*
X151587D1*
X169283Y207217D2*
X168963Y203577D1*
X167927Y199257D1*
X166227Y195150D1*
X163903Y191360D1*
X161020Y187980D1*
X157640Y185097D1*
X153850Y182773D1*
X149743Y181073D1*
X145423Y180037D1*
X141783Y179717D1*
X117940Y155953D1*
X116547Y155243D1*
X115000Y155000D1*
X100020D1*
X100000Y125020D1*
X147910Y125000D1*
X270000Y247073D1*
Y264980D1*
X227090Y265000D1*
X169303Y207230D1*
X76010Y820333D2*
X111530D1*
X76010Y810667D2*
X111530D1*
X76010Y801000D2*
X111530D1*
X76010Y791333D2*
X111530D1*
X76010Y781667D2*
X111530D1*
X76010Y772000D2*
X111530D1*
X112520Y826600D2*
X74983D1*
X75000Y765020D1*
X112520Y765000D1*
Y826607D1*
D56*
X70000Y1020000D3*
Y940000D3*
Y860000D3*
Y780000D3*
Y700000D3*
Y620000D3*
Y540000D3*
Y460000D3*
Y380000D3*
Y300000D3*
Y220000D3*
Y140000D3*
D58*
X185000Y70000D3*
X265000D3*
X345000D3*
X425000D3*
X505000D3*
X585000D3*
X665000D3*
X745000D3*
X825000D3*
X905000D3*
X985000D3*
X1065000D3*
D56*
X1180000Y140000D3*
Y220000D3*
Y300000D3*
Y380000D3*
Y460000D3*
Y540000D3*
Y620000D3*
Y700000D3*
Y780000D3*
Y860000D3*
Y940000D3*
Y1020000D3*
D58*
X1065000Y1090000D3*
X985000D3*
X905000D3*
X825000D3*
X745000D3*
X665000D3*
X585000D3*
X505000D3*
X425000D3*
X345000D3*
X265000D3*
X185000D3*
D60*
X370000Y830000D3*
Y580000D3*
X625000Y830000D3*
Y580000D3*
X880000Y830000D3*
Y580000D3*
D62*
Y330000D3*
X625000D3*
D60*
X370000D3*
D64*
X200000Y960000D3*
M02*
