G04 DipTrace 3.3.1.0*
G04 BottomMask.gbr*
%MOMM*%
G04 #@! TF.FileFunction,Soldermask,Bot*
G04 #@! TF.Part,Single*
%ADD57R,0.94X0.44*%
%ADD59R,0.44X0.94*%
%ADD61C,1.44*%
%ADD63C,1.44*%
%ADD69C,0.7*%
%FSLAX35Y35*%
G04*
G71*
G90*
G75*
G01*
G04 BotMask*
%LPD*%
D57*
X70000Y1020000D3*
Y940000D3*
Y860000D3*
Y780000D3*
Y700000D3*
Y620000D3*
Y540000D3*
Y460000D3*
Y380000D3*
Y300000D3*
Y220000D3*
Y140000D3*
D59*
X185000Y70000D3*
X265000D3*
X345000D3*
X425000D3*
X505000D3*
X585000D3*
X665000D3*
X745000D3*
X825000D3*
X905000D3*
X985000D3*
X1065000D3*
D57*
X1180000Y140000D3*
Y220000D3*
Y300000D3*
Y380000D3*
Y460000D3*
Y540000D3*
Y620000D3*
Y700000D3*
Y780000D3*
Y860000D3*
Y940000D3*
Y1020000D3*
D59*
X1065000Y1090000D3*
X985000D3*
X905000D3*
X825000D3*
X745000D3*
X665000D3*
X585000D3*
X505000D3*
X425000D3*
X345000D3*
X265000D3*
X185000D3*
D61*
X370000Y830000D3*
Y580000D3*
X625000Y830000D3*
Y580000D3*
X880000Y830000D3*
Y580000D3*
D63*
Y330000D3*
X625000D3*
D61*
X370000D3*
D69*
X200000Y960000D3*
M02*
