M48
METRIC,0000.00
T01C0.153
%
T01
X+000350Y+000595
X+000415Y+000463
X+000374Y+000471
X+000368Y+000427
X+000331Y+000414
X+000317Y+000465
X+000276Y+000419
X+000168Y+000370
X+000198Y+000343
X+000244Y+000343
X+000276Y+000321
X+000250Y+000249
X+000200Y+000296
X+000141Y+000208
X+000165Y+000165
X+000140Y+000140
X+000227Y+000163
X+000309Y+000161
X+000368Y+000136
X+000426Y+000135
X+000462Y+000197
X+000459Y+000236
X+000475Y+000271
X+000509Y+000292
X+000496Y+000349
X+000534Y+000361
X+000632Y+000577
X+000653Y+000608
X+000928Y+000600
X+000871Y+000599
X+000672Y+000324
X+000630Y+000363
X+000712Y+000263
X+000805Y+000138
X+000769Y+000156
X+000729Y+000156
X+000690Y+000155
X+000504Y+000147
X+000505Y+000186
X+000375Y+000320
X+000141Y+000469
X+000045Y+000620
X+000075Y+000860
X+000043Y+000860
X+000092Y+000940
X+000160Y+001021
X+000095Y+001021
X+000272Y+001029
X+000284Y+000992
X+000284Y+000952
X+000235Y+000879
X+000467Y+000935
X+000444Y+000975
X+000444Y+001061
X+000505Y+001110
X+000585Y+001110
X+000708Y+001064
X+000900Y+000870
X+000870Y+000830
X+000809Y+000829
X+000662Y+000830
X+000611Y+000844
X+000660Y+000956
X+000439Y+000644
X+000868Y+000124
X+000984Y+000089
X+001028Y+000100
X+001160Y+000140
X+001200Y+000140
X+001180Y+000221
X+001200Y+000620
X+000991Y+000957
X+001031Y+000957
X+001027Y+000887
X+001068Y+000887
X+000945Y+000899
X+000925Y+000431
X+000956Y+000388
X+000932Y+000248
X+000890Y+000290
X+000881Y+000350
X+000820Y+000292
X+001200Y+000050
T00
M30
