M48
METRIC,0000.00
T01C0.153
%
T01
X+000322Y+000692
X+000197Y+000192
X+000500Y+000395
X+000500Y+000445
X+000504Y+000545
X+000698Y+000658
X+000751Y+000681
X+000809Y+000683
X+000880Y+000674
X+000940Y+000671
X+000833Y+000492
X+000789Y+000453
X+000743Y+000493
X+000678Y+000506
X+000677Y+000422
X+000726Y+000390
X+000720Y+000323
X+000755Y+000262
X+000788Y+000215
X+000835Y+000175
X+000720Y+000050
X+000620Y+000050
X+000520Y+000050
X+000246Y+000495
X+000095Y+000485
X+000050Y+000665
X+000050Y+000760
X+000050Y+000910
X+000159Y+000959
X+000050Y+001010
X+000050Y+001110
X+000220Y+001110
X+000300Y+001110
X+000400Y+001110
X+000700Y+001110
X+000785Y+001110
X+000865Y+000915
X+000644Y+000914
X+000705Y+000964
X+000666Y+000756
X+000643Y+000705
X+000599Y+000664
X+000170Y+000695
X+000050Y+000380
X+000050Y+000280
X+000050Y+000165
X+000050Y+000050
X+000140Y+000050
X+000280Y+000050
X+000380Y+000050
X+000820Y+000050
X+000905Y+000147
X+000969Y+000147
X+001038Y+000147
X+001103Y+000147
X+001103Y+000239
X+001117Y+000297
X+001200Y+000430
X+001200Y+000520
X+001110Y+000500
X+001029Y+000519
X+001030Y+000601
X+001028Y+000672
X+001110Y+000665
X+001110Y+000605
X+001200Y+000710
X+001200Y+000810
X+001200Y+000910
X+001200Y+001010
X+001200Y+001110
X+001120Y+001110
X+001030Y+001110
X+000930Y+001110
X+000985Y+000880
X+001000Y+000830
X+001000Y+000775
X+001060Y+000770
X+001100Y+000730
X+000924Y+000493
X+000995Y+000355
X+001040Y+000395
X+001019Y+000237
X+000971Y+000237
X+000882Y+000243
X+000872Y+000429
X+000920Y+000050
X+001020Y+000050
X+001110Y+000050
T00
M30
