G04 DipTrace 3.3.1.0*
G04 TopPaste.gbr*
%MOMM*%
G04 #@! TF.FileFunction,Paste,Top*
G04 #@! TF.Part,Single*
%AMOUTLINE2*
4,1,4,
0.18003,0.13,
0.18003,-0.13,
-0.18003,-0.13,
-0.18003,0.13,
0.18003,0.13,
0*%
%AMOUTLINE4*
4,1,5,
0.105,-0.18,
0.105,0.18,
0.09852,0.18,
-0.105,-0.0209,
-0.105,-0.18,
0.105,-0.18,
0*%
%AMOUTLINE7*
4,1,4,
0.0,0.30929,
0.30929,0.0,
0.0,-0.30929,
-0.30929,0.0,
0.0,0.30929,
0*%
%AMOUTLINE9*
4,1,5,
0.105,0.18,
0.105,-0.18,
0.09852,-0.18,
-0.105,0.0209,
-0.105,0.18,
0.105,0.18,
0*%
%AMOUTLINE11*
4,1,5,
-0.105,0.18,
-0.105,-0.18,
-0.09852,-0.18,
0.105,0.0209,
0.105,0.18,
-0.105,0.18,
0*%
%AMOUTLINE13*
4,1,5,
-0.105,-0.18,
-0.105,0.18,
-0.09852,0.18,
0.105,-0.0209,
0.105,-0.18,
-0.105,-0.18,
0*%
%ADD25R,0.37X0.33*%
%ADD28R,0.33X0.37*%
%ADD31R,0.68X0.55*%
%ADD34R,0.36X0.26*%
%ADD37R,0.26X0.36*%
%ADD40R,0.55X0.68*%
%ADD43C,0.28*%
%ADD47R,0.15X0.39*%
%ADD50R,0.39X0.15*%
%ADD52R,0.56X0.56*%
%ADD79R,0.85X0.75*%
%ADD81R,1.15X0.55*%
%ADD83R,0.85X0.65*%
%ADD102OUTLINE2*%
%ADD104OUTLINE4*%
%ADD107OUTLINE7*%
%ADD109OUTLINE9*%
%ADD111OUTLINE11*%
%ADD113OUTLINE13*%
%FSLAX35Y35*%
G04*
G71*
G90*
G75*
G01*
G04 TopPaste*
%LPD*%
D25*
X224000Y1021000D3*
Y1083000D3*
X96000Y538000D3*
Y600000D3*
Y420000D3*
Y482000D3*
Y360000D3*
Y298000D3*
D28*
X488000Y92000D3*
X550000D3*
X384000Y692000D3*
X322000D3*
D25*
X96000Y236000D3*
Y174000D3*
D28*
X184000Y92000D3*
X122000D3*
X250000D3*
X312000D3*
X221000Y960000D3*
X159000D3*
X232000Y692000D3*
X170000D3*
D25*
X660000Y1032000D3*
Y1094000D3*
D28*
X349000Y844000D3*
X411000D3*
X766000Y964000D3*
X704000D3*
X766000Y904000D3*
X704000D3*
X512000Y692000D3*
X574000D3*
X512000Y844000D3*
X574000D3*
D25*
X834157Y387867D3*
Y449867D3*
D28*
X951000Y192000D3*
X889000D3*
X1036000D3*
X1098000D3*
X808000Y784000D3*
X870000D3*
D25*
X952000Y788000D3*
Y850000D3*
D28*
Y728000D3*
X1014000D3*
X1068000Y560000D3*
X1130000D3*
X759740Y600000D3*
X697740D3*
D25*
X822280Y599000D3*
Y661000D3*
D28*
X809000Y545000D3*
X871000D3*
D25*
X983863Y599000D3*
Y661000D3*
D102*
X833757Y336273D3*
X763750D3*
D31*
X728000Y836000D3*
Y740000D3*
D34*
X808000Y724000D3*
X878000D3*
D37*
X1068000Y688000D3*
Y618000D3*
D40*
X500000Y768000D3*
X596000D3*
D34*
X690000Y545000D3*
X760000D3*
X915000D3*
X985000D3*
D25*
X160000Y1021000D3*
Y1083000D3*
D28*
X411000Y776000D3*
X349000D3*
D43*
X200000Y195000D3*
Y245000D3*
Y345000D3*
Y395000D3*
Y495000D3*
Y545000D3*
Y595000D3*
X250000Y195000D3*
Y245000D3*
Y295000D3*
Y345000D3*
Y395000D3*
Y445000D3*
Y495000D3*
Y545000D3*
Y595000D3*
X300000Y195000D3*
Y245000D3*
Y295000D3*
Y345000D3*
Y395000D3*
Y445000D3*
Y495000D3*
Y545000D3*
X350000Y245000D3*
Y295000D3*
Y345000D3*
Y395000D3*
Y445000D3*
Y495000D3*
Y545000D3*
Y595000D3*
X400000Y195000D3*
Y245000D3*
Y295000D3*
Y345000D3*
Y395000D3*
Y445000D3*
Y495000D3*
Y545000D3*
Y595000D3*
X450000Y195000D3*
Y245000D3*
Y295000D3*
Y345000D3*
Y395000D3*
Y445000D3*
Y495000D3*
Y545000D3*
X500000Y245000D3*
Y295000D3*
Y345000D3*
Y395000D3*
Y445000D3*
Y495000D3*
Y545000D3*
Y595000D3*
X550000Y195000D3*
Y245000D3*
Y295000D3*
Y345000D3*
Y395000D3*
Y445000D3*
Y495000D3*
Y545000D3*
Y595000D3*
X600000Y195000D3*
Y245000D3*
Y295000D3*
Y395000D3*
Y445000D3*
Y545000D3*
Y595000D3*
D47*
X1068000Y468000D3*
X1018000D3*
X968000D3*
D50*
X925000Y425000D3*
Y375000D3*
Y325000D3*
D47*
X968000Y282000D3*
X1018000D3*
X1068000D3*
D50*
X1111000Y325000D3*
Y375000D3*
Y425000D3*
D52*
X1018000Y375000D3*
D104*
X895870Y875630D3*
D107*
X863370Y918630D3*
D109*
X895870Y961630D3*
D111*
X830870D3*
D113*
Y875630D3*
D83*
X855000Y1060000D3*
X985000D3*
D25*
X766000Y1032000D3*
Y1094000D3*
D81*
X192000Y768000D3*
Y888000D3*
D79*
X557500Y927500D3*
Y1072500D3*
X372500Y927500D3*
Y1072500D3*
M02*
