G04 DipTrace 3.3.1.0*
G04 TopSilk.gbr*
%MOMM*%
G04 #@! TF.FileFunction,Legend,Top*
G04 #@! TF.Part,Single*
%ADD21C,0.2*%
%ADD41C,0.49995*%
%ADD44C,0.75002*%
%ADD103C,0.07843*%
%FSLAX35Y35*%
G04*
G71*
G90*
G75*
G01*
G04 TopSilk*
%LPD*%
X149995Y144995D2*
D21*
X650000D1*
Y645000D1*
X149995D1*
Y144995D1*
D41*
X124997Y119997D3*
D44*
X1155499Y512499D3*
X1097996Y515003D2*
D21*
X878000D1*
Y235000D1*
X1158003D1*
Y454996D1*
X833372Y828630D2*
X793370D1*
Y883636D1*
X141996Y723000D2*
X242004D1*
X630000Y1045010D2*
Y1140000D1*
X544998D1*
X40000Y720000D2*
Y1120000D1*
X440000D1*
X704966Y437105D2*
D103*
X702552Y441935D1*
X697666Y446820D1*
X692837Y449235D1*
X683123D1*
X678237Y446820D1*
X673408Y441935D1*
X670937Y437105D1*
X668523Y429805D1*
Y417620D1*
X670937Y410376D1*
X673408Y405491D1*
X678237Y400662D1*
X683123Y398191D1*
X692837D1*
X697666Y400662D1*
X702552Y405491D1*
X704966Y410376D1*
X723123Y437049D2*
Y439464D1*
X725538Y444349D1*
X727953Y446764D1*
X732838Y449178D1*
X742553D1*
X747382Y446764D1*
X749797Y444349D1*
X752267Y439464D1*
Y434635D1*
X749797Y429749D1*
X744967Y422505D1*
X720653Y398191D1*
X754682D1*
X772839Y437049D2*
Y439464D1*
X775254Y444349D1*
X777668Y446764D1*
X782554Y449178D1*
X792268D1*
X797097Y446764D1*
X799512Y444349D1*
X801983Y439464D1*
Y434635D1*
X799512Y429749D1*
X794683Y422505D1*
X770368Y398191D1*
X804397D1*
X890380Y143065D2*
X887965Y147895D1*
X883080Y152780D1*
X878251Y155195D1*
X868536D1*
X863651Y152780D1*
X858821Y147895D1*
X856351Y143065D1*
X853936Y135765D1*
Y123580D1*
X856351Y116336D1*
X858821Y111451D1*
X863651Y106622D1*
X868536Y104151D1*
X878251D1*
X883080Y106622D1*
X887965Y111451D1*
X890380Y116336D1*
X908537Y143009D2*
Y145424D1*
X910951Y150309D1*
X913366Y152724D1*
X918251Y155138D1*
X927966D1*
X932795Y152724D1*
X935210Y150309D1*
X937681Y145424D1*
Y140595D1*
X935210Y135709D1*
X930381Y128465D1*
X906066Y104151D1*
X940095D1*
X960667Y155138D2*
X987340D1*
X972796Y135709D1*
X980096D1*
X984925Y133295D1*
X987340Y130880D1*
X989811Y123580D1*
Y118751D1*
X987340Y111451D1*
X982511Y106565D1*
X975211Y104151D1*
X967911D1*
X960667Y106565D1*
X958252Y109036D1*
X955782Y113865D1*
X1039919Y144685D2*
X1037504Y149515D1*
X1032619Y154400D1*
X1027790Y156815D1*
X1018075D1*
X1013190Y154400D1*
X1008361Y149515D1*
X1005890Y144685D1*
X1003475Y137385D1*
Y125200D1*
X1005890Y117956D1*
X1008361Y113071D1*
X1013190Y108242D1*
X1018075Y105771D1*
X1027790D1*
X1032619Y108242D1*
X1037504Y113071D1*
X1039919Y117956D1*
X1058076Y144629D2*
Y147044D1*
X1060491Y151929D1*
X1062905Y154344D1*
X1067791Y156758D1*
X1077505D1*
X1082335Y154344D1*
X1084749Y151929D1*
X1087220Y147044D1*
Y142215D1*
X1084749Y137329D1*
X1079920Y130085D1*
X1055605Y105771D1*
X1089635D1*
X1129636D2*
Y156758D1*
X1105321Y122785D1*
X1141765D1*
X1030578Y833149D2*
X1028164Y837978D1*
X1023278Y842863D1*
X1018449Y845278D1*
X1008735D1*
X1003849Y842863D1*
X999020Y837978D1*
X996549Y833149D1*
X994135Y825849D1*
Y813663D1*
X996549Y806420D1*
X999020Y801534D1*
X1003849Y796705D1*
X1008735Y794234D1*
X1018449D1*
X1023278Y796705D1*
X1028164Y801534D1*
X1030578Y806420D1*
X1048736Y833093D2*
Y835507D1*
X1051150Y840393D1*
X1053565Y842807D1*
X1058450Y845222D1*
X1068165D1*
X1072994Y842807D1*
X1075409Y840393D1*
X1077879Y835507D1*
Y830678D1*
X1075409Y825793D1*
X1070579Y818549D1*
X1046265Y794234D1*
X1080294D1*
X1125124Y837978D2*
X1122709Y842807D1*
X1115409Y845222D1*
X1110580D1*
X1103280Y842807D1*
X1098395Y835507D1*
X1095980Y823378D1*
Y811249D1*
X1098395Y801534D1*
X1103280Y796649D1*
X1110580Y794234D1*
X1112995D1*
X1120239Y796649D1*
X1125124Y801534D1*
X1127539Y808834D1*
Y811249D1*
X1125124Y818549D1*
X1120239Y823378D1*
X1112995Y825793D1*
X1110580D1*
X1103280Y823378D1*
X1098395Y818549D1*
X1095980Y811249D1*
X669076Y362605D2*
Y311561D1*
X698219D1*
X713906Y352834D2*
X718791Y355305D1*
X726091Y362548D1*
Y311561D1*
X1101216Y680335D2*
Y629291D1*
X1130360D1*
X1170361D2*
Y680278D1*
X1146046Y646305D1*
X1182490D1*
X100747Y1022183D2*
Y1044027D1*
X98276Y1051327D1*
X95861Y1053798D1*
X91032Y1056212D1*
X86147D1*
X81318Y1053798D1*
X78847Y1051327D1*
X76432Y1044027D1*
Y1022183D1*
X127476D1*
X100747Y1039198D2*
X127476Y1056212D1*
X86203Y1071899D2*
X83732Y1076784D1*
X76488Y1084084D1*
X127476D1*
X668050Y147395D2*
Y110951D1*
X670464Y103651D1*
X675350Y98822D1*
X682650Y96351D1*
X687479D1*
X694779Y98822D1*
X699664Y103651D1*
X702079Y110951D1*
Y147395D1*
X717765Y137624D2*
X722650Y140095D1*
X729950Y147338D1*
Y96351D1*
X775518Y288938D2*
Y252494D1*
X777932Y245194D1*
X782818Y240365D1*
X790118Y237894D1*
X794947D1*
X802247Y240365D1*
X807132Y245194D1*
X809547Y252494D1*
Y288938D1*
X827704Y276753D2*
Y279167D1*
X830119Y284053D1*
X832533Y286467D1*
X837419Y288882D1*
X847133D1*
X851962Y286467D1*
X854377Y284053D1*
X856848Y279167D1*
Y274338D1*
X854377Y269453D1*
X849548Y262209D1*
X825233Y237894D1*
X859262D1*
X930108Y940575D2*
Y904131D1*
X932522Y896831D1*
X937408Y892002D1*
X944708Y889531D1*
X949537D1*
X956837Y892002D1*
X961722Y896831D1*
X964137Y904131D1*
Y940575D1*
X984709Y940518D2*
X1011382D1*
X996838Y921089D1*
X1004138D1*
X1008967Y918675D1*
X1011382Y916260D1*
X1013852Y908960D1*
Y904131D1*
X1011382Y896831D1*
X1006552Y891945D1*
X999252Y889531D1*
X991952D1*
X984709Y891945D1*
X982294Y894416D1*
X979823Y899245D1*
X1080877Y1110689D2*
X1078462Y1115518D1*
X1073577Y1120403D1*
X1068748Y1122818D1*
X1059033D1*
X1054148Y1120403D1*
X1049319Y1115518D1*
X1046848Y1110689D1*
X1044433Y1103389D1*
Y1091203D1*
X1046848Y1083960D1*
X1049319Y1079074D1*
X1054148Y1074245D1*
X1059033Y1071774D1*
X1068748D1*
X1073577Y1074245D1*
X1078462Y1079074D1*
X1080877Y1083960D1*
X1096563Y1113047D2*
X1101449Y1115518D1*
X1108749Y1122762D1*
Y1071774D1*
X1153579Y1115518D2*
X1151164Y1120347D1*
X1143864Y1122762D1*
X1139035D1*
X1131735Y1120347D1*
X1126850Y1113047D1*
X1124435Y1100918D1*
Y1088789D1*
X1126850Y1079074D1*
X1131735Y1074189D1*
X1139035Y1071774D1*
X1141450D1*
X1148693Y1074189D1*
X1153579Y1079074D1*
X1155993Y1086374D1*
Y1088789D1*
X1153579Y1096089D1*
X1148693Y1100918D1*
X1141450Y1103333D1*
X1139035D1*
X1131735Y1100918D1*
X1126850Y1096089D1*
X1124435Y1088789D1*
X66765Y795950D2*
X117809Y829979D1*
X66765D2*
X117809Y795950D1*
X76536Y845665D2*
X74066Y850551D1*
X66822Y857851D1*
X117809Y857850D1*
X264255Y958588D2*
X315299Y992617D1*
X264255D2*
X315299Y958588D1*
X276441Y1010774D2*
X274026D1*
X269141Y1013189D1*
X266726Y1015603D1*
X264312Y1020489D1*
Y1030203D1*
X266726Y1035033D1*
X269141Y1037447D1*
X274026Y1039918D1*
X278856D1*
X283741Y1037447D1*
X290985Y1032618D1*
X315299Y1008303D1*
Y1042332D1*
M02*
