G04 DipTrace 3.3.1.0*
G04 BottomMask.gbr*
%MOMM*%
G04 #@! TF.FileFunction,Soldermask,Bot*
G04 #@! TF.Part,Single*
%ADD23R,4.064X1.524*%
%ADD29R,1.7X1.7*%
%ADD35O,1.35X1.15*%
%ADD37R,2.0X2.1*%
%ADD45C,1.4478*%
%ADD67C,3.175*%
%ADD76C,2.0*%
%ADD79C,1.724*%
%ADD105C,1.2*%
%ADD107R,1.2X1.2*%
%ADD108C,1.9*%
%ADD110R,1.9X1.9*%
%FSLAX35Y35*%
G04*
G71*
G90*
G75*
G01*
G04 BotMask*
%LPD*%
D23*
X6610000Y2416000D3*
Y2924000D3*
D110*
X3556000Y3302000D3*
D108*
Y3048000D3*
Y2794000D3*
Y2540000D3*
Y2286000D3*
Y2032000D3*
D107*
X3121500Y2794000D3*
D105*
Y2667000D3*
Y2540000D3*
Y2413000D3*
Y2286000D3*
X3248500Y2794000D3*
Y2667000D3*
Y2540000D3*
Y2413000D3*
Y2286000D3*
D35*
X450000Y1005000D3*
X450023Y520000D3*
D37*
X150000Y1115000D3*
Y410000D3*
D45*
X650000Y3850000D3*
Y4050000D3*
D110*
X2286000Y1524000D3*
D108*
Y1270000D3*
Y1016000D3*
D110*
Y2794000D3*
D108*
Y2540000D3*
Y2286000D3*
D110*
Y4064000D3*
D108*
Y3810000D3*
Y3556000D3*
D79*
X4318000Y3810000D3*
X4826000Y2286000D3*
D29*
X4064000Y254000D3*
X3556000D3*
X3302000D3*
X3048000D3*
X2794000D3*
X6350000D3*
X6096000D3*
X5842000D3*
X5588000D3*
X5334000D3*
X5080000D3*
X4160520Y5080000D3*
X3906520D3*
X3652520D3*
X3398520D3*
X3144520D3*
X2890520D3*
X2636520D3*
X2379980D3*
X2128520D3*
X1874520D3*
X6350000D3*
X6096000D3*
X5842000D3*
X5588000D3*
X5334000D3*
X5080000D3*
X4826000D3*
X4572000D3*
X3810000Y254000D3*
X4572000D3*
X4318000D3*
D67*
X1397000D3*
X1524000Y5080000D3*
X6604000Y762000D3*
X6600000Y3556000D3*
D29*
X4318000Y4826000D3*
X4064000D3*
X3810000D3*
X3556000D3*
X3302000D3*
X3048000D3*
X2794000D3*
X2537460D3*
X2286000D3*
X2032000D3*
X6350000D3*
X6096000D3*
X5842000D3*
X5588000D3*
X5334000D3*
X5080000D3*
X4826000D3*
X4572000D3*
D110*
X254000Y1778000D3*
D108*
Y2032000D3*
Y2286000D3*
Y2540000D3*
D110*
X6096000Y3810000D3*
D108*
Y3556000D3*
Y3302000D3*
Y3048000D3*
D110*
X445000Y5065000D3*
D108*
Y4615000D3*
X1095000D3*
Y5065000D3*
D110*
X1800000Y302500D3*
D108*
X2300000D3*
D76*
X1700000Y552500D3*
X2400000D3*
M02*
