M48
METRIC,0000.00
T01C0.2
T02C0.65
T03C0.7
T04C0.85
T05C0.9
T06C0.965
T07C1.0
T08C1.1
T09C1.3
T10C3.175
%
T01
X+001428Y+001746
X+001430Y+001801
X+001475Y+001700
X+001532Y+001700
X+001575Y+001825
X+001515Y+001920
X+001475Y+001920
X+001375Y+001980
X+001305Y+002075
X+001245Y+002120
X+001150Y+002030
X+001200Y+001975
X+001135Y+001900
X+001200Y+001825
X+001135Y+001740
X+001200Y+001675
X+001160Y+001605
X+001240Y+001520
X+001310Y+001565
X+001370Y+001495
X+001460Y+001565
X+001535Y+001495
X+001610Y+001565
X+001695Y+001495
X+001760Y+001565
X+001875Y+001565
X+001865Y+001495
X+001970Y+001570
X+001885Y+001300
X+001990Y+001145
X+001600Y+001025
X+001600Y+000760
X+001300Y+000815
X+001224Y+000706
X+001025Y+000865
X+000910Y+000980
X+000850Y+000980
X+000790Y+000980
X+000780Y+001055
X+000845Y+001305
X+000905Y+001330
X+001035Y+001305
X+001195Y+001325
X+001250Y+001015
X+001095Y+000465
X+001150Y+000415
X+000970Y+000450
X+000843Y+000463
X+000760Y+000715
X+000590Y+000865
X+000320Y+001185
X+000450Y+001300
X+000555Y+001400
X+000680Y+001460
X+000790Y+001450
X+000735Y+001690
X+000735Y+002145
X+001020Y+002300
X+001020Y+002450
X+001020Y+002525
X+001020Y+002600
X+001140Y+002655
X+001201Y+002580
X+001140Y+002495
X+001201Y+002430
X+001165Y+002360
X+001245Y+002275
X+001315Y+002320
X+001375Y+002250
X+001375Y+002140
X+001455Y+002077
X+001525Y+002140
X+001605Y+002075
X+001680Y+002140
X+001755Y+002075
X+001820Y+002120
X+001910Y+002035
X+001875Y+001955
X+001875Y+001860
X+001965Y+001905
X+002075Y+001895
X+002160Y+001785
X+002420Y+001615
X+002405Y+002080
X+002065Y+002090
X+002031Y+002194
X+001975Y+002325
X+001880Y+002320
X+001870Y+002250
X+001765Y+002320
X+001700Y+002250
X+001615Y+002320
X+001540Y+002250
X+001465Y+002320
X+001495Y+002450
X+001430Y+002535
X+001480Y+002675
X+001520Y+002675
X+001580Y+002580
X+001775Y+002625
X+001750Y+002715
X+001760Y+002830
X+001825Y+002875
X+001915Y+002790
X+001880Y+002710
X+001880Y+002615
X+001970Y+002660
X+002090Y+002660
X+002090Y+002915
X+001730Y+003055
X+001730Y+003145
X+001730Y+003255
X+001615Y+003355
X+001405Y+003170
X+001405Y+003120
X+001360Y+003145
X+001220Y+003060
X+001185Y+003085
X+001120Y+003060
X+001055Y+003055
X+001010Y+003035
X+001010Y+003080
X+001125Y+003205
X+001080Y+003235
X+001125Y+003260
X+001015Y+003570
X+000930Y+003570
X+000880Y+003570
X+000710Y+003635
X+000780Y+003410
X+000780Y+003300
X+000590Y+003300
X+000590Y+003410
X+000410Y+003450
X+000070Y+003470
X+000070Y+003270
X+000070Y+003070
X+000070Y+002870
X+000070Y+002670
X+000070Y+002470
X+000070Y+002270
X+000070Y+002070
X+000070Y+001870
X+000070Y+001670
X+000070Y+001470
X+000070Y+001270
X+000325Y+000335
X+000270Y+000070
X+000120Y+000120
X+000070Y+000230
X+000470Y+000070
X+000670Y+000070
X+000870Y+000070
X+001070Y+000070
X+001270Y+000070
X+001540Y+000070
X+001670Y+000070
X+001870Y+000070
X+002070Y+000070
X+002270Y+000070
X+002470Y+000070
X+002670Y+000070
X+002870Y+000070
X+003070Y+000070
X+003270Y+000070
X+003470Y+000070
X+003670Y+000070
X+003870Y+000070
X+004070Y+000070
X+004270Y+000070
X+004470Y+000070
X+004670Y+000070
X+004870Y+000070
X+005070Y+000070
X+005270Y+000070
X+005470Y+000070
X+005670Y+000070
X+005870Y+000070
X+006070Y+000070
X+006270Y+000070
X+006470Y+000070
X+006670Y+000070
X+006755Y+000155
X+006780Y+000270
X+006780Y+000470
X+006780Y+000620
X+006780Y+000910
X+006780Y+001070
X+006780Y+001270
X+006780Y+001470
X+006780Y+001670
X+006780Y+001870
X+006780Y+002070
X+006780Y+002270
X+006780Y+002370
X+006780Y+002465
X+006600Y+002270
X+006435Y+002370
X+006435Y+002465
X+006370Y+002565
X+006300Y+002585
X+006300Y+002465
X+006160Y+002470
X+006160Y+002585
X+006070Y+002585
X+005980Y+002585
X+005885Y+002585
X+005885Y+002470
X+005760Y+002470
X+005760Y+002585
X+005680Y+002585
X+005600Y+002585
X+005455Y+002515
X+005420Y+002440
X+005380Y+002380
X+005480Y+002285
X+005230Y+002430
X+005145Y+002370
X+005130Y+002310
X+005090Y+002230
X+005105Y+002435
X+004830Y+002435
X+004750Y+002435
X+004590Y+002435
X+004510Y+002225
X+004475Y+001860
X+004710Y+001840
X+004615Y+001585
X+004370Y+001585
X+004180Y+001585
X+004180Y+001785
X+004180Y+001950
X+004185Y+002455
X+004185Y+002645
X+004155Y+002775
X+004315Y+002750
X+004310Y+002990
X+004255Y+003025
X+004250Y+003130
X+004295Y+003155
X+004315Y+003310
X+004315Y+003390
X+004315Y+003470
X+004390Y+003555
X+004470Y+003710
X+004610Y+003755
X+004830Y+003635
X+004870Y+003890
X+004870Y+004195
X+004850Y+004360
X+004985Y+004505
X+005005Y+004705
X+004795Y+004705
X+004555Y+004705
X+004285Y+004705
X+004060Y+004705
X+003875Y+004705
X+003685Y+004705
X+003430Y+004705
X+003180Y+004705
X+002920Y+004705
X+002665Y+004705
X+002410Y+004705
X+002160Y+004705
X+001900Y+004705
X+001340Y+004760
X+001390Y+004435
X+001165Y+003920
X+001165Y+003875
X+001165Y+003830
X+000405Y+003960
X+000070Y+003870
X+000070Y+003670
X+000070Y+004070
X+000070Y+004270
X+000070Y+004470
X+000070Y+004670
X+000070Y+004870
X+000070Y+005070
X+000120Y+005220
X+000270Y+005270
X+000470Y+005270
X+000670Y+005270
X+000870Y+005270
X+001070Y+005270
X+001270Y+005270
X+001370Y+005270
X+001670Y+005270
X+001870Y+005270
X+002070Y+005270
X+002270Y+005270
X+002470Y+005270
X+002670Y+005270
X+002870Y+005270
X+003070Y+005270
X+003270Y+005270
X+003470Y+005270
X+003670Y+005270
X+003870Y+005270
X+004070Y+005270
X+004270Y+005270
X+004470Y+005270
X+004670Y+005270
X+004870Y+005270
X+005070Y+005270
X+005270Y+005270
X+005470Y+005270
X+005670Y+005270
X+005870Y+005270
X+006070Y+005270
X+006270Y+005270
X+006470Y+005270
X+006670Y+005270
X+006750Y+005195
X+006780Y+005070
X+006780Y+004870
X+006780Y+004670
X+006780Y+004470
X+006780Y+004270
X+006780Y+004070
X+006780Y+003870
X+006780Y+003680
X+006780Y+003435
X+006780Y+003270
X+006780Y+003070
X+006780Y+002975
X+006780Y+002875
X+006600Y+003070
X+006435Y+002975
X+006435Y+002875
X+006370Y+002775
X+006300Y+002755
X+006200Y+002755
X+006100Y+002755
X+006000Y+002755
X+005900Y+002755
X+005800Y+002755
X+005700Y+002755
X+005600Y+002755
X+005830Y+002985
X+005970Y+003145
X+005895Y+003385
X+005805Y+003575
X+005445Y+003800
X+005335Y+003710
X+005285Y+003655
X+005335Y+003625
X+005205Y+003280
X+005205Y+003030
X+005205Y+002780
X+004950Y+002780
X+004950Y+003030
X+004950Y+003280
X+004695Y+003280
X+004695Y+003030
X+004695Y+002780
X+004050Y+002925
X+003960Y+003005
X+003895Y+003135
X+003895Y+003270
X+004000Y+003365
X+004057Y+003707
X+004165Y+003855
X+004415Y+004020
X+004450Y+003975
X+004450Y+004065
X+004415Y+004110
X+004450Y+004155
X+004415Y+004200
X+004565Y+004195
X+004630Y+004360
X+004400Y+004360
X+003875Y+004375
X+003820Y+004175
X+003640Y+004070
X+003455Y+004170
X+003285Y+003995
X+003440Y+003855
X+003395Y+003645
X+003200Y+003615
X+003325Y+003220
X+003685Y+002925
X+003335Y+002730
X+003335Y+002595
X+003685Y+002420
X+003460Y+001785
X+003330Y+001785
X+003265Y+001720
X+003220Y+001665
X+003265Y+001860
X+003460Y+001580
X+002930Y+001610
X+002925Y+001785
X+002925Y+001930
X+002930Y+001375
X+002930Y+001315
X+002930Y+001255
X+002930Y+001195
X+002930Y+001135
X+003290Y+000910
X+003465Y+000905
X+004055Y+000640
X+004415Y+000960
X+004375Y+001305
X+004860Y+001610
X+005225Y+001400
X+005410Y+001685
X+005225Y+002025
X+006055Y+002005
X+006290Y+001370
X+005885Y+000935
X+005960Y+000525
X+006190Y+000400
X+005445Y+000495
X+004940Y+000435
X+004940Y+000760
X+005235Y+000970
X+005655Y+003145
X+006415Y+003230
X+006420Y+004050
X+005985Y+004330
X+005805Y+004440
X+005585Y+004335
X+005805Y+004185
X+005295Y+004250
X+005220Y+004195
X+005220Y+004320
X+005150Y+004305
X+005240Y+004705
X+005485Y+004705
X+005755Y+004705
X+005985Y+004705
X+006220Y+004705
X+006495Y+004705
X+003635Y+004345
X+002635Y+004440
X+002700Y+003790
X+002285Y+003295
X+002590Y+003035
X+002930Y+002820
X+001685Y+002895
X+001610Y+002830
X+001530Y+002895
X+001460Y+002833
X+001380Y+002895
X+001310Y+002830
X+001250Y+002875
X+001205Y+002910
X+001130Y+002910
X+001155Y+002785
X+001205Y+002730
X+001380Y+002735
X+000960Y+002785
X+000380Y+002785
X+000380Y+002460
X+000380Y+002265
X+001745Y+001960
X+001770Y+001870
X+002050Y+000625
X+002545Y+000500
X+002015Y+003805
X+000865Y+004760
X+000540Y+004445
X+000405Y+004360
X+000405Y+004760
T02
X+000460Y+001005G85X+000440Y+001005
X+000460Y+000520G85X+000440Y+000520
T03
X+003121Y+002794
X+003121Y+002667
X+003121Y+002540
X+003121Y+002413
X+003121Y+002286
X+003248Y+002286
X+003248Y+002413
X+003248Y+002540
X+003248Y+002667
X+003248Y+002794
X+000650Y+003850
X+000650Y+004050
T04
X+000183Y+001115G85X+000117Y+001115
X+000183Y+000410G85X+000117Y+000410
T05
X+004064Y+000254
X+004318Y+000254
X+004572Y+000254
X+005080Y+000254
X+005334Y+000254
X+005588Y+000254
X+005842Y+000254
X+006096Y+000254
X+006350Y+000254
X+003810Y+000254
X+003556Y+000254
X+003302Y+000254
X+003048Y+000254
X+002794Y+000254
X+002794Y+004826
X+003048Y+004826
X+003302Y+004826
X+003556Y+004826
X+003810Y+004826
X+004064Y+004826
X+004318Y+004826
X+004572Y+004826
X+004572Y+005080
X+004826Y+005080
X+005080Y+005080
X+005334Y+005080
X+005588Y+005080
X+005842Y+005080
X+006096Y+005080
X+006096Y+004826
X+006350Y+004826
X+006350Y+005080
X+005842Y+004826
X+005588Y+004826
X+005334Y+004826
X+005080Y+004826
X+004826Y+004826
X+004161Y+005080
X+003907Y+005080
X+003653Y+005080
X+003399Y+005080
X+003145Y+005080
X+002891Y+005080
X+002637Y+005080
X+002380Y+005080
X+002129Y+005080
X+001875Y+005080
X+002032Y+004826
X+002286Y+004826
X+002537Y+004826
T06
X+004318Y+003810
X+004826Y+002286
T07
X+000445Y+005065
X+000445Y+004615
X+001095Y+004615
X+001095Y+005065
X+001800Y+000303
X+002300Y+000303
T08
X+003556Y+003302
X+003556Y+003048
X+003556Y+002794
X+003556Y+002540
X+003556Y+002286
X+003556Y+002032
X+002286Y+002286
X+002286Y+002540
X+002286Y+002794
X+002286Y+003556
X+002286Y+003810
X+002286Y+004064
X+000254Y+002540
X+000254Y+002286
X+000254Y+002032
X+000254Y+001778
X+002286Y+001524
X+002286Y+001270
X+002286Y+001016
X+006096Y+003048
X+006096Y+003302
X+006096Y+003556
X+006096Y+003810
T09
X+001700Y+000553
X+002400Y+000553
T10
X+001397Y+000254
X+001524Y+005080
X+006600Y+003556
X+006604Y+000762
T00
M30
