G04 DipTrace 3.3.1.0*
G04 TopMask.gbr*
%MOMM*%
G04 #@! TF.FileFunction,Soldermask,Top*
G04 #@! TF.Part,Single*
%ADD23R,4.064X1.524*%
%ADD29R,1.7X1.7*%
%ADD31R,1.0X1.0*%
%ADD35O,1.35X1.15*%
%ADD37R,2.0X2.1*%
%ADD39R,1.45X0.5*%
%ADD41R,2.0X1.9*%
%ADD45C,1.4478*%
%ADD50C,0.28*%
%ADD53R,0.64X0.84*%
%ADD55R,2.5X1.75*%
%ADD58R,0.5X1.9*%
%ADD60C,0.35*%
%ADD67C,3.175*%
%ADD76C,2.0*%
%ADD79C,1.724*%
%ADD81R,1.7X1.5*%
%ADD94R,1.2X1.3*%
%ADD105C,1.2*%
%ADD107R,1.2X1.2*%
%ADD108C,1.9*%
%ADD110R,1.9X1.9*%
%ADD111R,1.1X0.9*%
%ADD113R,0.79X0.92*%
%ADD115R,1.3X1.2*%
%ADD117R,0.9X1.1*%
%ADD118R,1.4X1.65*%
%ADD122C,1.8*%
%ADD124R,0.7X1.2*%
%ADD126R,1.2X0.7*%
%FSLAX35Y35*%
G04*
G71*
G90*
G75*
G01*
G04 TopMask*
%LPD*%
D126*
X4394999Y3470000D3*
Y3390000D3*
Y3310000D3*
Y3230000D3*
Y3150000D3*
Y3070000D3*
Y2990000D3*
Y2910000D3*
Y2830000D3*
Y2750000D3*
Y2670000D3*
Y2590000D3*
D124*
X4509999Y2520000D3*
X4589999D3*
X4669999D3*
X4749999D3*
X4829999D3*
X4909999D3*
X4989999D3*
X5069999D3*
X5149999D3*
X5229999D3*
X5309999D3*
X5389999D3*
D126*
X5504999Y2590000D3*
Y2670000D3*
Y2750000D3*
Y2830000D3*
Y2910000D3*
Y2990000D3*
Y3070000D3*
Y3150000D3*
Y3230000D3*
Y3310000D3*
Y3390000D3*
Y3470000D3*
D124*
X5389999Y3540000D3*
X5309999D3*
X5229999D3*
X5149999D3*
X5069999D3*
X4989999D3*
X4909999D3*
X4829999D3*
X4749999D3*
X4669999D3*
X4589999D3*
X4509999D3*
D122*
X4694999Y3280000D3*
Y3030000D3*
Y2780000D3*
X4949999Y3280000D3*
Y3030000D3*
Y2780000D3*
X5204999Y3280000D3*
Y3030000D3*
Y2780000D3*
D23*
X6610000Y2416000D3*
Y2670000D3*
Y2924000D3*
D118*
X4475000Y2355000D3*
X4305000D3*
D117*
X5825000Y2670000D3*
Y2540000D3*
X6230000Y2670000D3*
Y2540000D3*
D115*
X4170000Y3270000D3*
X4000000D3*
D113*
X6076000Y2670000D3*
X5980000D3*
D115*
X4170000Y3130000D3*
X4000000D3*
D111*
X4180000Y3005000D3*
X4050000D3*
D110*
X3556000Y3302000D3*
D108*
Y3048000D3*
Y2794000D3*
Y2540000D3*
Y2286000D3*
Y2032000D3*
D107*
X3121500Y2794000D3*
D105*
Y2667000D3*
Y2540000D3*
Y2413000D3*
Y2286000D3*
X3248500Y2794000D3*
Y2667000D3*
Y2540000D3*
Y2413000D3*
Y2286000D3*
D35*
X450000Y1005000D3*
X450023Y520000D3*
D37*
X150000Y1115000D3*
Y410000D3*
D39*
X418000Y892500D3*
Y827500D3*
Y762500D3*
Y697500D3*
Y632500D3*
D41*
X150500Y877800D3*
Y647700D3*
D111*
X815000Y2600000D3*
X945000D3*
X815000Y2450000D3*
X945000D3*
X815000Y2300000D3*
X945000D3*
D31*
X682500Y2600000D3*
X517500D3*
X682500Y2450000D3*
X517500D3*
X682500Y2300000D3*
X517500D3*
D111*
X652500Y2900000D3*
X782500D3*
D31*
X520000D3*
X355000D3*
D94*
X2590000Y1355000D3*
Y1525000D3*
D45*
X650000Y3850000D3*
Y4050000D3*
D111*
X655000Y3050000D3*
X785000D3*
D31*
X522500D3*
X357500D3*
D94*
X2590000Y1015000D3*
Y1185000D3*
D113*
X1875000Y1785000D3*
X1971000D3*
Y1660000D3*
X1875000D3*
D115*
X1480000Y1990000D3*
X1650000D3*
D94*
X1645000Y1675000D3*
Y1845000D3*
D117*
X905000Y3365000D3*
Y3495000D3*
D113*
X1875000Y2540000D3*
X1971000D3*
X1970000Y2415000D3*
X1874000D3*
D115*
X1480000Y2745000D3*
X1650000D3*
D94*
X1645000Y2430000D3*
Y2600000D3*
D117*
X465000Y3345000D3*
Y3215000D3*
D50*
X1475000Y2610000D3*
Y2570000D3*
Y2530000D3*
X1515000Y2490000D3*
X1475000D3*
X1515000Y2530000D3*
Y2570000D3*
Y2610000D3*
X1475000Y1855000D3*
Y1815000D3*
Y1775000D3*
X1515000Y1735000D3*
X1475000D3*
X1515000Y1775000D3*
Y1815000D3*
Y1855000D3*
D53*
X780000Y3505000D3*
X685000D3*
X590000D3*
Y3205000D3*
X685000D3*
X780000D3*
D55*
X685000Y3355000D3*
D110*
X2286000Y1524000D3*
D108*
Y1270000D3*
Y1016000D3*
D110*
Y2794000D3*
D108*
Y2540000D3*
Y2286000D3*
D94*
X2590000Y2285000D3*
Y2455000D3*
Y2625000D3*
Y2795000D3*
D58*
X842750Y587250D3*
X906250D3*
X969750D3*
X1033250D3*
X1096750D3*
X1160250D3*
X1223800D3*
X1287250D3*
Y1187250D3*
X1223800D3*
X1160250D3*
X1096750D3*
X1033250D3*
X969750D3*
X906200D3*
X842750D3*
D113*
X700000Y970000D3*
X604000D3*
D50*
X1070000Y3135000D3*
Y3095000D3*
X1110000D3*
Y3135000D3*
D110*
X2286000Y4064000D3*
D108*
Y3810000D3*
Y3556000D3*
D94*
X2590000Y3555000D3*
Y3725000D3*
Y3895000D3*
Y4065000D3*
D60*
X1235000Y3195000D3*
Y3145000D3*
X1285000Y3095000D3*
X1235000D3*
X1285000Y3145000D3*
Y3195000D3*
D117*
X1015000Y3495000D3*
Y3365000D3*
D111*
X1485000Y3255000D3*
X1615000D3*
D117*
X1125000Y3495000D3*
Y3365000D3*
X1345000Y3495000D3*
Y3365000D3*
X1235000D3*
Y3495000D3*
D111*
X1485000Y3035000D3*
X1615000D3*
X1485000Y3145000D3*
X1615000D3*
D117*
X555000Y1170000D3*
Y1300000D3*
X1505000Y1145000D3*
Y1015000D3*
Y630000D3*
Y760000D3*
X1395000Y1015000D3*
Y1145000D3*
Y760000D3*
Y630000D3*
X1080000Y325000D3*
Y195000D3*
X840000Y325000D3*
Y195000D3*
X960000Y325000D3*
Y195000D3*
D94*
X680000Y1180000D3*
Y1350000D3*
D31*
X682500Y2000000D3*
X517500D3*
X682500Y1850000D3*
X517500D3*
D81*
X1035000Y4065000D3*
Y3875000D3*
D111*
X815000Y2000000D3*
X945000D3*
X815000Y1850000D3*
X945000D3*
D79*
X4318000Y3810000D3*
X4826000Y2286000D3*
D29*
X4064000Y254000D3*
X3556000D3*
X3302000D3*
X3048000D3*
X2794000D3*
X6350000D3*
X6096000D3*
X5842000D3*
X5588000D3*
X5334000D3*
X5080000D3*
X4160520Y5080000D3*
X3906520D3*
X3652520D3*
X3398520D3*
X3144520D3*
X2890520D3*
X2636520D3*
X2379980D3*
X2128520D3*
X1874520D3*
X6350000D3*
X6096000D3*
X5842000D3*
X5588000D3*
X5334000D3*
X5080000D3*
X4826000D3*
X4572000D3*
X3810000Y254000D3*
X4572000D3*
X4318000D3*
D67*
X1397000D3*
X1524000Y5080000D3*
X6604000Y762000D3*
X6600000Y3556000D3*
D29*
X4318000Y4826000D3*
X4064000D3*
X3810000D3*
X3556000D3*
X3302000D3*
X3048000D3*
X2794000D3*
X2537460D3*
X2286000D3*
X2032000D3*
X6350000D3*
X6096000D3*
X5842000D3*
X5588000D3*
X5334000D3*
X5080000D3*
X4826000D3*
X4572000D3*
D110*
X254000Y1778000D3*
D108*
Y2032000D3*
Y2286000D3*
Y2540000D3*
D110*
X6096000Y3810000D3*
D108*
Y3556000D3*
Y3302000D3*
Y3048000D3*
D110*
X445000Y5065000D3*
D108*
Y4615000D3*
X1095000D3*
Y5065000D3*
D110*
X1800000Y302500D3*
D108*
X2300000D3*
D76*
X1700000Y552500D3*
X2400000D3*
D117*
X260000Y4905000D3*
Y5035000D3*
Y4775000D3*
Y4645000D3*
M02*
